<?xml version="1.0" encoding="utf-8" ?>
<svg xmlns="http://www.w3.org/2000/svg" xmlns:xlink="http://www.w3.org/1999/xlink" width="512" height="512">
	<path d="M9.63415 482.401C17.9449 483.124 18.6411 487.264 18.7818 494.642L177.768 494.555C184.496 494.563 189.264 494.76 190.951 502.103C190.848 508.236 186.946 509.997 181.901 510L9.5 510C8.62369 509.993 7.85147 509.952 7.04025 509.599C4.84035 503.941 1.42653 497.295 2.67613 491.043L2.73709 490.75C3.47996 487.018 6.17043 483.888 9.63415 482.401Z"/>
	<path d="M10.4261 460.508C7.5645 459.459 4.39078 457.215 3.58501 454.125L3.48836 453.763C3.03512 451.863 3.33644 449.626 3.37186 447.679L3.37132 146.022C3.37642 140.079 1.97408 128.261 10.1977 126.619L11.3729 126.466C15.4483 125.977 19.8685 126.74 23.9904 126.746L104.5 126.747C107.547 126.746 115.069 127.97 117.262 125.28L231.25 33.2536C229.54 27.5721 232.005 19.7138 234.813 14.6677C247.818 -8.70638 284.676 4.26771 281.291 29.4312L281.234 30.375C281.205 31.3979 280.808 32.3846 280.616 33.3897C289.029 38.6785 296.302 45.4729 304.11 51.5845L388.921 119.657C390.578 121.031 396.097 125.85 397.61 126.661L500.494 126.716C505.17 126.687 509.848 128.21 510.023 134L510.002 495.651C510.001 498.144 511.371 506.261 508.569 505.757C506.655 506.537 505.517 509.951 509.375 508.909L509.625 509.237C507.77 510.503 496.891 510.01 494.444 510.007L221.185 509.999C214.286 509.997 214.47 511.073 211.388 504.261C211.666 499.748 213.668 494.779 218.875 494.562L494.402 494.636C494.953 492.721 494.578 489.675 494.586 487.648L494.573 173.071C494.569 163.113 494.954 153.002 494.355 143.069C493.377 142.757 491.878 142.947 490.818 142.949L139.875 143.477C134.029 143.83 130.664 143.483 124.953 143.397L19.9895 143.283C19.4189 149.415 19.8138 155.912 19.8107 162.085L19.822 449.178C19.819 456.935 20.1226 460.44 10.4261 460.508ZM273.538 47.0907C264.627 56.237 251.592 57.8625 241.496 49.5317C238.997 47.4699 240.05 47.6765 237.635 49.2542C228.272 55.3696 219.763 62.2354 211.062 69.2527L152.562 116.7C148.581 119.969 144.198 123.008 140.492 126.566L232.945 126.744L372.352 126.216C369.491 124.198 366.873 121.943 364.135 119.768L281.223 53.1829C278.732 51.1424 276.268 48.7901 273.538 47.0907Z"/>
	<path fill="#FF3A48" d="M254.505 19.0793C258.948 18.6861 263.777 21.5768 265.188 25.8619L265.602 27.3145C266.614 32.9983 263.429 37.9847 257.684 38.9405C243.288 39.7661 242.942 21.195 254.505 19.0793Z"/>
	<path fill="#FFC403" d="M10.4261 460.508C20.1226 460.44 19.819 456.935 19.822 449.178L19.8107 162.085C19.8138 155.912 19.4189 149.415 19.9895 143.283L124.953 143.397C130.664 143.483 134.029 143.83 139.875 143.477L490.818 142.949C491.878 142.947 493.377 142.757 494.355 143.069C494.954 153.002 494.569 163.113 494.573 173.071L494.586 487.648C494.578 489.675 494.953 492.721 494.402 494.636L218.875 494.562C213.668 494.779 211.666 499.748 211.388 504.261C208.132 502.046 205.874 501.731 201.931 501.719L193.971 501.908C193.098 501.955 191.727 502.217 190.951 501.825C189.264 494.76 184.496 494.563 177.768 494.555L18.7818 494.642C18.6411 487.264 17.9449 483.124 9.63415 482.401C10.3174 475.462 11.4647 467.477 10.4261 460.508Z"/>
	<path fill="#FFE449" d="M201.534 148.898C202.463 148.762 203.671 148.477 204.495 148.987C205.84 149.612 207.526 150.703 207.319 152.375L204.663 152.582C204.28 152.655 203.944 152.739 203.553 152.717C202.908 151.377 202.355 150.153 201.534 148.898Z"/>
	<path fill="#E1DF05" d="M201.534 148.898C202.463 148.762 203.671 148.477 204.495 148.987L203.739 149.137C204.062 150.235 204.555 151.15 204.449 152.316L204.663 152.582C204.28 152.655 203.944 152.739 203.553 152.717C202.908 151.377 202.355 150.153 201.534 148.898Z"/>
	<path fill="#FFE449" d="M203.553 152.717C196.535 153.827 186.296 154.93 180.004 151.189C185.173 146.403 185.931 151.844 189.875 151.511C192.879 149.126 189.708 146.296 197.513 149.162C198.539 148.698 199.475 148.254 200.613 148.573L201.534 148.898C202.355 150.153 202.908 151.377 203.553 152.717Z"/>
	<path d="M120.041 209.066L385.25 209.228C398.011 209.137 398.526 209.683 398.528 220.825L398.525 430.25C398.439 434.256 395.474 437.24 391.578 437.834C389.448 437.957 387.25 437.801 385.113 437.801L128.167 437.842C120.254 437.921 113.717 438.441 113.436 428.805L113.339 218.141C113.364 216.778 113.358 215.328 113.925 214.062L114.074 213.746C115.323 210.982 116.927 209.584 120.041 209.066Z"/>
	<path fill="#E1DF05" d="M332.542 334.828L334.25 334.766C343.478 335.074 350.118 349.685 353.809 356.435C361.662 370.795 368.603 388.836 379.682 401C386.318 408.285 384.114 403.336 384.053 413.317L384.016 423.119L142.916 423.077L128.975 423.132C128.593 422.053 128.81 420.285 128.805 419.117C128.754 408.751 127.266 411.991 134.345 405.994L184.412 360.909C191.002 355.438 202.604 344.765 211.337 343.134C225.587 340.473 238.017 361.105 245.876 370.447C258.863 385.886 274.979 387.207 290.914 373.362C304.681 361.402 312.881 338.141 332.542 334.828Z"/>
	<path fill="#BDDBF0" d="M297.578 224.972L382.983 225.092L382.948 376.585L365.213 343.739C358.955 332.632 353.124 324.691 340.75 320.268C323.979 314.273 307.222 328.959 297.411 340.868C292.975 346.252 289.05 351.996 284.419 357.233C274.132 368.865 267.725 371.493 257.549 359.331L249.7 349.716C246.323 345.576 242.772 341.721 238.779 338.17C212.922 315.322 191.387 334.766 169.802 352.812L136.092 382.8C134.819 383.997 129.387 388.418 128.817 389.503L128.858 224.979L297.578 224.972Z"/>
	<path fill="#645734" d="M334.531 237.313C345.112 236.848 353.928 244.425 342.554 247.804C335.677 249.589 333.521 247.057 330.448 240.686L330.549 240.459C331.465 238.735 332.766 237.938 334.531 237.313Z"/>
	<path fill="#645734" d="M166.56 277.368C169.317 279.402 172.049 283.772 167.753 286.154C163.441 288.546 160.083 282.206 156.445 281.589C153.553 281.098 148.321 285.563 144.258 283.983C140.526 282.531 139.358 275.621 146.043 273.162C150.433 271.547 155.571 271.659 159.803 273.581L166.56 277.368Z"/>
	<path fill="#736C51" d="M159.803 273.581L166.56 277.368L165.233 277.889C162.358 277.497 160.23 276.435 159.803 273.581Z"/>
	<path d="M240.963 245.813C246.744 245.095 252.904 247.027 257.562 250.434C274.882 263.1 268.384 290.054 246.582 292.911C242.092 293.91 236.456 291.808 232.672 289.485C213.1 277.474 218.206 250.661 240.963 245.813Z"/>
	<path fill="#E1DF05" d="M241.722 254.288C261.117 251.438 265.909 280.053 246.509 284.723C237.421 285.983 227.3 276.949 228.636 267.531L228.698 267.125C229.675 260.396 235.376 255.892 241.722 254.288Z"/>
</svg>
