<?xml version="1.0" encoding="UTF-8"?>
<svg id="iconos" xmlns="http://www.w3.org/2000/svg" viewBox="0 0 1448.4 1706.65">
  <path d="M1248.63,964.01v-59.51c0-88.55-72.04-160.59-160.59-160.59-3.96,0-7.87.18-11.77.44v219.65h172.35Z" fill="none"/>
  <path d="M794.25,490.19c0-101.38-82.48-183.86-183.86-183.86-109.63,0-198.83,89.2-198.83,198.83v106h382.69v-120.97Z" fill="#ec813b"/>
  <path d="M175.91,611.16h195.74v-106c0-131.64,107.1-238.74,238.74-238.74,123.39,0,223.77,100.38,223.77,223.77v120.97h108.01c11.79-41.65,18.1-85.6,18.1-131.03C960.27,214.96,745.31,0,480.14,0S0,214.96,0,480.14c0,140.21,60.11,266.37,155.96,354.15v-203.17c0-11.02,8.94-19.96,19.96-19.96Z" fill="#ec813b"/>
  <path d="M705.76,1003.92c0-22.04,17.87-39.91,39.91-39.91h128.6v-46.24c0-100.05,69.11-184.24,162.09-207.41v-59.28h-202.21v5.89c46.95,9.31,82.47,50.79,82.47,100.44,0,56.48-45.95,102.43-102.43,102.43s-102.43-45.95-102.43-102.43c0-49.65,35.52-91.13,82.47-100.44v-5.89h-382.69v5.89c46.95,9.31,82.47,50.79,82.47,100.44,0,56.48-45.95,102.43-102.43,102.43s-102.43-45.95-102.43-102.43c0-49.65,35.52-91.13,82.47-100.44v-5.89h-175.78v995.71h509.89v-642.86Z" fill="#fff"/>
  <path d="M914.19,917.77v46.24h122.18v-212.25c-70.71,22.06-122.18,88.14-122.18,166.01Z" fill="#fff"/>
  
  <!-- Blue Bag -->
  <polygon points="745.67 1003.92 745.67 1666.74 1056.32 1666.74 1408.49 1666.74 1408.49 1003.92 745.67 1003.92" fill="#2db6df"/>
  
  <!-- SW Logo -->
  <text x="1077" y="1380"
        font-size="360"
        font-family="Segoe UI, sans-serif"
        fill="white"
        stroke="black"
        stroke-width="5"
        text-anchor="middle"
        dominant-baseline="middle">
    SW
  </text>

  <path d="M1408.49,964.01h-119.94v-59.51c0-110.56-89.95-200.5-200.5-200.5-3.95,0-7.87.13-11.76.34v-73.22c0-11.02-8.94-19.96-19.96-19.96h-222.16v-120.97c0-123.39-100.38-223.77-223.77-223.77-131.64,0-238.74,107.1-238.74,238.74v106h-195.74c-11.02,0-19.96,8.94-19.96,19.96v1035.62c0,11.02,8.94,19.96,19.96,19.96h535.23c6.9,11.92,19.76,19.95,34.53,19.95h662.81c22.04,0,39.91-17.87,39.91-39.91v-662.81c0-22.04-17.87-39.91-39.91-39.91ZM1408.49,1666.74h-662.81v-662.81h662.81v662.81ZM195.87,651.07h175.78v5.89c-46.95,9.31-82.47,50.79-82.47,100.44,0,56.48,45.95,102.43,102.43,102.43s102.43-45.95,102.43-102.43c0-49.65-35.52-91.13-82.47-100.44v-5.89h382.69v5.89c-46.95,9.31-82.47,50.79-82.47,100.44,0,56.48,45.95,102.43,102.43,102.43s102.43-45.95,102.43-102.43c0-49.65-35.52-91.13-82.47-100.44v-5.89h202.21v59.28c-92.98,23.17-162.09,107.36-162.09,207.41v46.24h-128.6c-22.04,0-39.91,17.87-39.91,39.91v642.86H195.87v-995.71ZM391.61,694.89c34.53,0,62.51,27.99,62.51,62.51s-27.99,62.51-62.51,62.51-62.51-27.99-62.51-62.51,27.99-62.51,62.51-62.51ZM876.72,757.41c0,34.53-27.99,62.51-62.51,62.51s-62.51-27.99-62.51-62.51,27.99-62.51,62.51-62.51,62.51,27.99,62.51,62.51ZM1036.37,964.01h-122.18v-46.24c0-77.88,51.47-143.95,122.18-166.01v212.25ZM1088.05,743.91c88.55,0,160.59,72.04,160.59,160.59v59.51h-172.35v-219.65c3.89-.26,7.81-.44,11.77-.44ZM411.56,505.17c0-109.63,89.2-198.83,198.83-198.83,101.38,0,183.86,82.48,183.86,183.86v120.97h-382.69v-106Z"/>
  <circle cx="391.61" cy="757.41" r="62.51" transform="translate(-115.73 72.11) rotate(-9.17)" fill="#ec813b"/>
  <circle cx="814.21" cy="757.41" r="62.51" transform="translate(-152.24 207.33) rotate(-13.28)" fill="#ec813b"/>
</svg>
